<svg width="1019" height="506" viewBox="0 0 1019 506" fill="none" xmlns="http://www.w3.org/2000/svg">
<g style="mix-blend-mode:overlay" opacity="0.6">
<path d="M955.725 131.23C972.772 78.9777 953.121 20.0495 907.211 -33.0479C861.316 -86.1284 789.289 -133.231 701.991 -161.71C614.694 -190.189 528.747 -194.624 460.379 -178.82C391.99 -163.01 341.369 -127.007 324.323 -74.755C307.276 -22.5028 326.927 36.4254 372.837 89.5228C418.732 142.603 490.759 189.705 578.057 218.185C665.354 246.664 751.301 251.099 819.669 235.294C888.058 219.485 938.679 183.482 955.725 131.23Z" stroke="#E5E8FF" stroke-width="2"/>
</g>
<g style="mix-blend-mode:overlay" opacity="0.6">
<path d="M934.347 248.88C957.297 178.532 930.824 99.2514 869.112 27.878C807.415 -43.4785 710.606 -106.781 593.292 -145.053C475.978 -183.324 360.463 -189.289 268.556 -168.044C176.627 -146.793 108.495 -98.3761 85.5454 -28.0281C62.5955 42.32 89.0686 121.6 150.78 192.973C212.477 264.33 309.287 327.632 426.601 365.904C543.915 404.176 659.429 410.141 751.336 388.895C843.265 367.644 911.397 319.228 934.347 248.88Z" stroke="#E5E8FF" stroke-width="2"/>
</g>
</svg>
