<svg width="275" height="135" viewBox="0 0 275 135" fill="none" xmlns="http://www.w3.org/2000/svg">
<path opacity="0.2" fill-rule="evenodd" clip-rule="evenodd" d="M65.0653 23.8867C33.8841 37.0268 17.9738 50.9483 13.357 69.2025C12.4336 72.967 11.2973 75.2399 9.02441 78.081C-4.61294 95.1987 -2.26899 113.879 14.9198 125.314C33.0319 137.318 83.9588 138.029 138.508 127.019C146.321 125.457 158.964 123.184 166.564 122.047C261.244 107.771 292.852 65.9352 264.156 37.0979C246.684 19.4829 220.901 11.954 177.929 11.6699C137.017 11.4569 82.6802 28.4325 43.5438 51.8007C33.3158 57.9091 32.1084 55.4941 35.0916 52.3688C45.6037 41.2885 73.9438 26.8699 103.562 18.1335C129.985 10.3204 142.202 7.12417 162.018 6.98211C169.76 6.91108 174.235 1.584 162.303 0.944744C149.66 0.376522 98.9456 9.61009 65.0653 23.8867ZM255.491 77.0866C242.919 92.8548 213.94 104.574 166.99 112.743C10.0898 140.017 22.4486 80.9931 22.4486 80.9931C22.5907 80.9221 71.955 32.1259 169.121 20.2643C216.923 14.369 293.136 29.8531 255.491 77.0866ZM68.1196 124.959C84.3139 127.161 65.2784 127.587 41.271 125.599C-3.47656 121.905 9.45051 96.1221 13.5701 91.8604C26.9234 111.109 45.4617 121.905 68.1196 124.959Z" fill="#3347FF"/>
</svg>
