<svg width="16" height="15" viewBox="0 0 16 15" fill="none" xmlns="http://www.w3.org/2000/svg">
<path d="M15.4324 0.344141C14.9887 -0.0995447 14.272 -0.0995447 13.8283 0.344141L8.26514 5.89591L2.702 0.332765C2.25831 -0.110921 1.54159 -0.110921 1.0979 0.332765C0.654215 0.776451 0.654215 1.49317 1.0979 1.93686L6.66104 7.5L1.0979 13.0631C0.654215 13.5068 0.654215 14.2235 1.0979 14.6672C1.54159 15.1109 2.25831 15.1109 2.702 14.6672L8.26514 9.1041L13.8283 14.6672C14.272 15.1109 14.9887 15.1109 15.4324 14.6672C15.8761 14.2235 15.8761 13.5068 15.4324 13.0631L9.86923 7.5L15.4324 1.93686C15.8647 1.50455 15.8647 0.776451 15.4324 0.344141Z" fill="#333333"/>
</svg>
