<svg width="76" height="76" viewBox="0 0 76 76" fill="none" xmlns="http://www.w3.org/2000/svg">
<path opacity="0.2" d="M75.7046 37.8305C75.7046 58.4322 59.0041 75.1332 38.4026 75.1332C17.801 75.1332 1.10022 58.4322 1.10022 37.8305C1.10022 17.2291 17.801 0.52832 38.4026 0.52832C59.0038 0.52832 75.7046 17.2291 75.7046 37.8305Z" fill="#00A478"/>
<path d="M34.5775 37.1777V30.6519H25.7264V24.9316H50.4598V30.7324H41.6087V37.1777H34.5775Z" fill="#00A478"/>
<path fill-rule="evenodd" clip-rule="evenodd" d="M21.9212 37.9028C21.9212 35.7275 29.0352 33.9551 37.8863 33.9551C46.7374 33.9551 53.8514 35.7275 53.8514 37.9028C53.8514 40.0781 46.7374 41.8506 37.8863 41.8506C29.0352 41.8506 21.9212 40.0781 21.9212 37.9028ZM52.5278 37.9028C51.9488 37.0972 47.151 34.5996 37.8863 34.5996C28.6216 34.5996 23.8238 37.0166 23.2447 37.9028C23.8238 38.7085 28.6216 39.917 37.8863 39.917C47.2337 39.917 51.9488 38.7085 52.5278 37.9028Z" fill="#00A478"/>
<path d="M41.6087 39.1924V34.6807C40.4506 34.6001 39.2098 34.5195 37.969 34.5195C36.8109 34.5195 35.7355 34.5195 34.6602 34.6001V39.1118C35.6528 39.1118 36.8109 39.1924 37.969 39.1924C39.2098 39.2729 40.4506 39.2729 41.6087 39.1924Z" fill="#00A478"/>
<path d="M37.8863 41.8506C36.7282 41.8506 35.6528 41.8506 34.5775 41.77V53.7744H41.526V41.6895C40.3679 41.77 39.1271 41.8506 37.8863 41.8506Z" fill="#00A478"/>
</svg>
