<svg width="100" height="100" viewBox="0 0 100 100" fill="none" xmlns="http://www.w3.org/2000/svg">
<path opacity="0.5" d="M99.0191 50.0731C99.0191 77.3489 76.9082 99.4604 49.6328 99.4604C22.357 99.4604 0.24585 77.3489 0.24585 50.0731C0.24585 22.7977 22.357 0.686523 49.6328 0.686523C76.908 0.686523 99.0191 22.7977 99.0191 50.0731Z" fill="#00A478"/>
<path d="M44.5682 49.2075V40.5675H32.8497V32.9941H65.5958V40.6741H53.8773V49.2075H44.5682Z" fill="#00A478"/>
<path fill-rule="evenodd" clip-rule="evenodd" d="M27.8119 50.1671C27.8119 47.2871 37.2305 44.9404 48.949 44.9404C60.6675 44.9404 70.0861 47.2871 70.0861 50.1671C70.0861 53.0471 60.6675 55.3938 48.949 55.3938C37.2305 55.3938 27.8119 53.0471 27.8119 50.1671ZM68.3339 50.1668C67.5673 49.1001 61.2152 45.7935 48.9491 45.7935C36.683 45.7935 30.3309 48.9935 29.5642 50.1668C30.3309 51.2335 36.683 52.8335 48.9491 52.8335C61.3247 52.8335 67.5673 51.2335 68.3339 50.1668Z" fill="#00A478"/>
<path d="M53.8771 51.8742V45.9008C52.3438 45.7942 50.701 45.6875 49.0582 45.6875C47.525 45.6875 46.1012 45.6875 44.6775 45.7942V51.7675C45.9917 51.7675 47.525 51.8742 49.0582 51.8742C50.701 51.9808 52.3438 51.9808 53.8771 51.8742Z" fill="#00A478"/>
<path d="M48.9487 55.394C47.4155 55.394 45.9917 55.394 44.568 55.2873V71.1807H53.7676V55.1807C52.2343 55.2873 50.5915 55.394 48.9487 55.394Z" fill="#00A478"/>
</svg>
